<?xml version="1.0" encoding="utf-8"?>
<!-- Generator: Adobe Illustrator 22.1.0, SVG Export Plug-In . SVG Version: 6.00 Build 0)  -->
<svg version="1.1" id="Layer_1" xmlns="http://www.w3.org/2000/svg" xmlns:xlink="http://www.w3.org/1999/xlink" x="0px" y="0px"
	 viewBox="0 0 101.9 152.8" style="enable-background:new 0 0 101.9 152.8;" xml:space="preserve">
<style type="text/css">
	.st0{enable-background:new    ;}
	.st1{fill:#69C9CA;}
	.st2{fill:#F7941D;}
</style>
<title>logo-text</title>
<g id="Logo_Text_Vertical">
	<g class="st0">
		<path class="st1" d="M95.9,94.3c2.2,0,4,1.8,4,4c0,2.2-1.8,4-4,4c-2.2,0-4-1.8-4-4C91.9,96,93.7,94.3,95.9,94.3z M95.9,94.9
			c-1.9,0-3.4,1.5-3.4,3.4c0,1.9,1.5,3.4,3.4,3.4c1.9,0,3.4-1.5,3.4-3.4C99.3,96.4,97.7,94.9,95.9,94.9z M95.9,98.7H95v1.6
			c0,0.2-0.1,0.3-0.3,0.3s-0.3-0.2-0.3-0.3v-4c0-0.2,0.2-0.4,0.4-0.4h1.5c0.8,0,1.5,0.5,1.5,1.4s-0.6,1.2-1,1.3l1,1.4
			c0,0.1,0.1,0.1,0.1,0.2c0,0.2-0.2,0.3-0.4,0.3c-0.1,0-0.2,0-0.3-0.1L95.9,98.7z M96.2,96.5H95v1.6h1.2c0.4,0,0.8-0.3,0.8-0.8
			C97,96.9,96.6,96.5,96.2,96.5z"/>
	</g>
	<g class="st0">
		<path class="st2" d="M15,117.8l-3.3-12.3l-3.3,12.3c-0.2,0.8-0.9,1.3-1.7,1.3s-1.6-0.6-1.7-1.3l-4.2-14.7c0-0.1-0.1-0.3-0.1-0.4
			c0-0.8,0.6-1.4,1.4-1.4c0.7,0,1.2,0.4,1.3,1.1l3.4,13.1l3.6-13.2c0.2-0.6,0.7-1,1.3-1c0.6,0,1.1,0.4,1.3,1l3.6,13.2l3.4-13.1
			c0.2-0.6,0.7-1.1,1.3-1.1c0.8,0,1.4,0.6,1.4,1.4c0,0.1,0,0.3-0.1,0.4l-4.2,14.7c-0.2,0.8-0.9,1.3-1.7,1.3S15.2,118.6,15,117.8z"/>
	</g>
	<g class="st0">
		<path class="st2" d="M28.6,106c3.8,0,6.2,3,6.2,6.3c0,0.7-0.5,1.1-1.4,1.1h-8.6c0.2,2.2,1.8,3.9,4.3,3.9c1.1,0,2.2-0.3,3.2-1
			c0.1-0.1,0.3-0.1,0.5-0.1c0.5,0,0.9,0.4,0.9,0.9c0,0.3-0.2,0.6-0.4,0.8c-1.3,0.9-2.8,1.4-4.4,1.4c-3.8,0-6.6-2.7-6.6-6.7
			C22.2,108.9,24.8,106,28.6,106z M24.7,111.7h7.8c-0.1-1.7-1.2-3.8-3.9-3.8C26,107.9,24.8,110,24.7,111.7z"/>
	</g>
	<g class="st0">
		<path class="st2" d="M48.5,112.6c0,4.2-2.4,6.6-5.6,6.6c-1.7,0-3.2-0.8-4.2-2.1v0.8c0,0.7-0.6,1.2-1.2,1.2c-0.7,0-1.2-0.5-1.2-1.2
			v-15.4c0-0.7,0.5-1.2,1.2-1.2c0.6,0,1.2,0.5,1.2,1.2v5.6c1-1.4,2.5-2.1,4.2-2.1C46.2,106,48.5,108.6,48.5,112.6z M46.1,112.6
			c0-2.7-1.5-4.6-3.8-4.6c-1.4,0-2.9,0.9-3.5,1.9v5.4c0.6,1,2.1,1.8,3.5,1.8C44.6,117.2,46.1,115.3,46.1,112.6z"/>
	</g>
	<g class="st0">
		<path class="st2" d="M50,117c0-0.6,0.4-1,1-1c0.2,0,0.4,0.1,0.6,0.2c1,0.7,2.2,1.2,3.6,1.2c1.8,0,2.7-0.7,2.7-1.8
			c0-1.3-1.4-1.7-3.1-2c-2.2-0.5-4.7-1.1-4.7-3.8c0-2,1.7-3.8,4.8-3.8c1.8,0,3.2,0.5,4.2,1.3c0.2,0.2,0.4,0.4,0.4,0.8
			c0,0.5-0.4,1-1,1c-0.2,0-0.4-0.1-0.5-0.2c-0.8-0.6-1.9-1-3.1-1c-1.6,0-2.6,0.6-2.6,1.7c0,1.1,1.4,1.5,2.9,1.8
			c2.2,0.5,4.8,1.1,4.8,4c0,2.2-1.8,3.9-5.1,3.9c-1.8,0-3.3-0.4-4.6-1.4C50.2,117.7,50,117.4,50,117z"/>
	</g>
	<g class="st0">
		<path class="st2" d="M74.2,112.6c0,4.2-2.3,6.7-5.6,6.7c-1.7,0-3.1-0.8-4.2-2.2v5.6c0,0.7-0.6,1.2-1.2,1.2c-0.7,0-1.2-0.5-1.2-1.2
			v-15.4c0-0.7,0.5-1.2,1.2-1.2c0.6,0,1.2,0.5,1.2,1.2v0.7c0.9-1.3,2.4-2.1,4.2-2.1C71.8,106,74.2,108.5,74.2,112.6z M71.7,112.6
			c0-2.6-1.4-4.5-3.8-4.5c-1.4,0-2.9,0.8-3.5,1.9v5.4c0.6,1,2.1,1.9,3.5,1.9C70.3,117.2,71.7,115.3,71.7,112.6z"/>
		<path class="st2" d="M86.8,107.3v10.6c0,0.7-0.6,1.2-1.2,1.2c-0.7,0-1.2-0.5-1.2-1.2v-0.7c-0.9,1.1-2.5,2-4.5,2c-2.7,0-4-1.4-4-4
			v-7.9c0-0.7,0.5-1.2,1.2-1.2c0.6,0,1.2,0.5,1.2,1.2v7.1c0,2.1,1.1,2.7,2.7,2.7c1.5,0,2.8-0.8,3.5-1.8v-8.1c0-0.7,0.5-1.2,1.2-1.2
			C86.2,106.2,86.8,106.7,86.8,107.3z"/>
	</g>
	<g class="st0">
		<path class="st2" d="M100.2,110.1v7.9c0,0.7-0.6,1.2-1.2,1.2c-0.6,0-1.2-0.5-1.2-1.2v-7.1c0-2.1-1.1-2.8-2.7-2.8
			c-1.5,0-2.8,0.9-3.5,1.8v8c0,0.7-0.6,1.2-1.2,1.2c-0.7,0-1.2-0.5-1.2-1.2v-10.6c0-0.7,0.5-1.2,1.2-1.2c0.7,0,1.2,0.5,1.2,1.2v0.7
			c0.9-1,2.5-2.1,4.5-2.1C98.8,106,100.2,107.4,100.2,110.1z"/>
	</g>
	<g class="st0">
		<path class="st1" d="M7,135.5c0-5.4,4-9.1,9-9.1c2.7,0,4.7,1,6.1,2.6c0.2,0.2,0.3,0.5,0.3,0.8c0,0.7-0.6,1.2-1.2,1.2
			c-0.4,0-0.7-0.2-0.9-0.4c-1-1.2-2.5-1.9-4.2-1.9c-3.5,0-6.3,2.8-6.3,6.7c0,3.9,2.7,6.7,6.3,6.7c1.7,0,3.2-0.7,4.3-1.9
			c0.2-0.3,0.5-0.4,0.9-0.4c0.7,0,1.2,0.6,1.2,1.2c0,0.3-0.1,0.6-0.3,0.8c-1.4,1.6-3.4,2.6-6.1,2.6C11,144.5,7,140.8,7,135.5z"/>
	</g>
	<g class="st0">
		<path class="st1" d="M31.1,132.4c0,0.6-0.4,1-1.2,1.1c-1.1,0.1-2.5,0.9-3.1,1.8v7.8c0,0.7-0.6,1.2-1.2,1.2c-0.7,0-1.2-0.5-1.2-1.2
			v-10.6c0-0.7,0.5-1.2,1.2-1.2c0.7,0,1.2,0.5,1.2,1.2v0.9c0.7-0.9,1.7-1.7,2.6-2c0.3-0.1,0.5-0.1,0.7-0.1
			C30.8,131.3,31.1,131.8,31.1,132.4z"/>
	</g>
	<g class="st0">
		<path class="st1" d="M37.4,131.2c3.8,0,6.2,3,6.2,6.3c0,0.7-0.5,1.1-1.4,1.1h-8.6c0.2,2.2,1.8,3.9,4.3,3.9c1.1,0,2.2-0.3,3.2-1
			c0.1-0.1,0.3-0.1,0.5-0.1c0.5,0,0.9,0.4,0.9,0.9c0,0.3-0.2,0.6-0.4,0.8c-1.3,0.9-2.8,1.4-4.4,1.4c-3.8,0-6.6-2.7-6.6-6.7
			C31,134.2,33.7,131.2,37.4,131.2z M33.5,136.9h7.8c-0.1-1.7-1.2-3.8-3.9-3.8C34.9,133.1,33.6,135.2,33.5,136.9z"/>
	</g>
	<g class="st0">
		<path class="st1" d="M55.7,135.6v7.5c0,0.7-0.6,1.2-1.2,1.2c-0.6,0-1.2-0.5-1.2-1.2v-0.4c-1,1.1-2.4,1.7-4.2,1.7
			c-2.1,0-4.4-1.4-4.4-4.2c0-2.9,2.3-4.2,4.4-4.2c1.7,0,3.2,0.6,4.2,1.7v-2.1c0-1.6-1.3-2.5-3.1-2.5c-1.2,0-2.2,0.3-3.1,1.1
			c-0.2,0.1-0.4,0.2-0.6,0.2c-0.5,0-0.9-0.4-0.9-1c0-0.3,0.2-0.6,0.4-0.8c1.3-1.1,2.9-1.6,4.6-1.6C53.3,131.2,55.7,132.4,55.7,135.6
			z M53.3,141.4v-2.2c-0.7-0.9-1.9-1.4-3.3-1.4c-1.7,0-2.9,1-2.9,2.5c0,1.5,1.2,2.5,2.9,2.5C51.4,142.9,52.6,142.4,53.3,141.4z"/>
		<path class="st1" d="M64.6,143.3c0,0.4-0.2,0.8-0.6,0.9c-0.4,0.2-1.1,0.4-1.8,0.4c-2,0-3-1.1-3-3.1v-7.8H58
			c-0.6,0-1.1-0.5-1.1-1.1c0-0.6,0.5-1,1.1-1h1.2v-2.4c0-0.7,0.5-1.2,1.2-1.2c0.6,0,1.2,0.5,1.2,1.2v2.4h1.7c0.6,0,1.1,0.5,1.1,1
			c0,0.6-0.5,1.1-1.1,1.1h-1.7v7.3c0,0.9,0.4,1.5,1.2,1.5c0.4,0,0.6-0.2,0.8-0.2C64.2,142.3,64.6,142.7,64.6,143.3z"/>
		<path class="st1" d="M65.6,127.5c0-0.8,0.7-1.5,1.5-1.5c0.8,0,1.5,0.7,1.5,1.5S68,129,67.1,129C66.3,129,65.6,128.3,65.6,127.5z
			 M66,143.1v-10.6c0-0.7,0.5-1.2,1.2-1.2c0.6,0,1.2,0.5,1.2,1.2v10.6c0,0.7-0.6,1.2-1.2,1.2C66.5,144.3,66,143.8,66,143.1z"/>
	</g>
	<g class="st0">
		<path class="st1" d="M82.3,132.6c0,0.2-0.1,0.3-0.1,0.5L78,143.2c-0.3,0.7-0.9,1.1-1.7,1.1c-0.8,0-1.4-0.4-1.7-1.1L70.4,133
			c-0.1-0.1-0.1-0.3-0.1-0.4c0-0.7,0.5-1.2,1.2-1.2c0.5,0,0.9,0.3,1.1,0.7l3.7,9.4l3.7-9.4c0.2-0.4,0.6-0.7,1.1-0.7
			C81.7,131.4,82.3,131.9,82.3,132.6z"/>
	</g>
	<g class="st0">
		<path class="st1" d="M89,131.2c3.8,0,6.2,3,6.2,6.3c0,0.7-0.5,1.1-1.4,1.1h-8.6c0.2,2.2,1.8,3.9,4.3,3.9c1.1,0,2.2-0.3,3.2-1
			c0.1-0.1,0.3-0.1,0.5-0.1c0.5,0,0.9,0.4,0.9,0.9c0,0.3-0.2,0.6-0.4,0.8c-1.3,0.9-2.8,1.4-4.4,1.4c-3.8,0-6.6-2.7-6.6-6.7
			C82.6,134.2,85.3,131.2,89,131.2z M85.1,136.9h7.8c-0.1-1.7-1.2-3.8-3.9-3.8C86.4,133.1,85.2,135.2,85.1,136.9z"/>
	</g>
</g>
<g id="Logo_W">
	<path class="st1" d="M57.5,9.4L67,45.8l9.8-40.4C77.5,2.2,80.4,0,83.6,0c3.9,0,7,3.1,7,7c0,0.7-0.1,1.4-0.2,2.1L76.7,57.4
		c-1.1,3.9-4.7,6.5-8.7,6.5c-4.1,0-7.7-2.8-8.6-6.8l-7.5-29.6L57.5,9.4z"/>
	<path class="st2" d="M40.5,57c-1.2,4.8-6.1,7.7-10.9,6.5c-3.1-0.8-5.5-3.1-6.4-6.1L9.3,9C9.2,8.3,9.1,7.7,9.1,7c0-3.9,3.1-7,7-7
		c3.3,0,6.1,2.3,6.8,5.4l9.8,40.4L43.6,4.8C44.3,1.9,47-0.2,50,0c3.3,0.2,5.8,3.1,5.6,6.4c0,0.5-0.1,1-0.3,1.4L40.5,57z"/>
</g>
</svg>
