<svg id="Comets_Diaganol" data-name="Comets Diaganol" xmlns="http://www.w3.org/2000/svg" viewBox="0 0 127.96 120.25"><defs><style>.cls-1{fill:#f7941d;}.cls-2{fill:#69c9ca;}</style></defs><title>logo-comets</title><path class="cls-1" d="M116.43,23.27a66.08,66.08,0,0,1,12.65,19.6,64.51,64.51,0,0,1,1.62,44.95,62.83,62.83,0,0,1-10.81,19.61,56.17,56.17,0,0,1-7.79,7.93l-2.11,1.8-2.25,1.62c-.75.52-1.47,1.09-2.26,1.58l-2.36,1.42a60.16,60.16,0,0,1-61.63-.25A58.74,58.74,0,0,0,82,125.86a56.23,56.23,0,0,0,18.33-8.5l2-1.47c.67-.49,1.28-1.08,1.93-1.61l1.91-1.62,1.76-1.79a48.38,48.38,0,0,0,6.36-7.65,54.12,54.12,0,0,0,9.18-37.1A52.49,52.49,0,0,0,106.56,33.2,7,7,0,1,1,116,22.84l.41.4Z" transform="translate(-6.02 -9.87)"/><path class="cls-2" d="M23.57,116.73A66.26,66.26,0,0,1,10.92,97.12a64.46,64.46,0,0,1-1.61-45A62.66,62.66,0,0,1,20.13,32.55a55.64,55.64,0,0,1,7.79-7.93L30,22.82l2.25-1.62c.76-.52,1.48-1.1,2.26-1.58l2.37-1.42a60.15,60.15,0,0,1,61.65.3,58.72,58.72,0,0,0-40.48-4.36,56.14,56.14,0,0,0-18.34,8.48l-2,1.47c-.68.49-1.29,1.08-1.94,1.61l-1.9,1.63-1.77,1.78a49,49,0,0,0-6.37,7.65,54.07,54.07,0,0,0-9.19,37.11A52.55,52.55,0,0,0,33.44,106.8,7,7,0,1,1,24,117.16l-.41-.4Z" transform="translate(-6.02 -9.87)"/></svg>