<?xml version="1.0" standalone="no"?>
<!DOCTYPE svg PUBLIC "-//W3C//DTD SVG 20010904//EN"
 "http://www.w3.org/TR/2001/REC-SVG-20010904/DTD/svg10.dtd">
<svg version="1.0" xmlns="http://www.w3.org/2000/svg"
 width="271.000000pt" height="271.000000pt" viewBox="0 0 271.000000 271.000000"
 preserveAspectRatio="xMidYMid meet">
<metadata>
Created by potrace 1.11, written by Peter Selinger 2001-2013
</metadata>
<g transform="translate(0.000000,271.000000) scale(0.100000,-0.100000)"
fill="#000000" stroke="none">
<path d="M388 2080 c-51 -28 -88 -93 -88 -157 0 -34 55 -241 180 -679 99 -346
183 -637 186 -648 10 -30 75 -96 115 -117 50 -25 149 -25 204 0 50 22 98 76
119 132 37 101 396 1318 396 1343 0 40 -37 104 -73 126 -68 42 -169 19 -218
-50 -10 -14 -80 -260 -156 -552 -76 -290 -141 -524 -144 -520 -3 4 -61 234
-129 512 -70 291 -131 522 -143 545 -44 79 -163 110 -249 65z"/>
<path d="M2130 2081 c-73 -38 -79 -56 -211 -606 -67 -280 -124 -513 -128 -517
-3 -4 -55 183 -115 415 -61 232 -115 437 -121 456 l-11 34 -31 -99 c-18 -54
-50 -160 -73 -234 l-42 -135 101 -400 c109 -431 118 -453 192 -502 53 -35 149
-43 213 -19 46 18 99 64 121 106 7 14 95 312 194 661 122 429 181 651 181 684
0 63 -35 123 -88 153 -51 28 -133 30 -182 3z"/>
</g>
</svg>
